<svg xmlns="http://www.w3.org/2000/svg" xmlns:xlink="http://www.w3.org/1999/xlink"><defs><symbol viewBox="0 0 492.004 492.004" id="arrow"><path d="M484.14 226.886L306.46 49.202c-5.072-5.072-11.832-7.856-19.04-7.856-7.216 0-13.972 2.788-19.044 7.856l-16.132 16.136c-5.068 5.064-7.86 11.828-7.86 19.04 0 7.208 2.792 14.2 7.86 19.264L355.9 207.526H26.58C11.732 207.526 0 219.15 0 234.002v22.812c0 14.852 11.732 27.648 26.58 27.648h330.496L252.248 388.926c-5.068 5.072-7.86 11.652-7.86 18.864 0 7.204 2.792 13.88 7.86 18.948l16.132 16.084c5.072 5.072 11.828 7.836 19.044 7.836 7.208 0 13.968-2.8 19.04-7.872l177.68-177.68c5.084-5.088 7.88-11.88 7.86-19.1.016-7.244-2.776-14.04-7.864-19.12z"/></symbol><symbol viewBox="0 0 48.065 48.065" id="bookmark"><path d="M40.908 0H7.158a1 1 0 00-1 1v46.065a1 1 0 001.693.72l16.182-15.582 16.182 15.582a.996.996 0 001.085.2 1 1 0 00.608-.92V1a1 1 0 00-1-1zm-1 44.714L24.726 30.095c-.193-.187-.443-.28-.693-.28s-.5.093-.693.28L8.158 44.714V2h31.75v42.714z"/></symbol><symbol viewBox="0 0 511.626 511.627" id="comment"><path d="M477.364 127.481c-22.839-28.072-53.864-50.248-93.072-66.522-39.208-16.274-82.036-24.41-128.479-24.41-46.442 0-89.269 8.136-128.478 24.41s-70.233 38.446-93.074 66.522C11.419 155.555 0 186.15 0 219.269c0 28.549 8.61 55.299 25.837 80.232 17.227 24.934 40.778 45.874 70.664 62.813-2.096 7.611-4.57 14.842-7.426 21.7-2.855 6.851-5.424 12.467-7.708 16.847-2.286 4.374-5.376 9.23-9.281 14.555-3.899 5.332-6.849 9.093-8.848 11.283a4550.42 4550.42 0 00-9.851 10.848c-4.565 5.041-7.517 8.33-8.848 9.853-.193.097-.953.948-2.285 2.574-1.331 1.615-1.999 2.419-1.999 2.419l-1.713 2.57c-.953 1.42-1.381 2.327-1.287 2.703.096.384-.094 1.335-.57 2.854-.477 1.526-.428 2.669.142 3.429v.287c.762 3.234 2.283 5.853 4.567 7.851 2.284 1.992 4.858 2.991 7.71 2.991h1.429c12.375-1.526 23.223-3.613 32.548-6.279 49.87-12.751 93.649-35.782 131.334-69.094 14.274 1.523 28.074 2.283 41.396 2.283 46.442 0 89.271-8.135 128.479-24.414 39.208-16.276 70.233-38.444 93.072-66.517 22.843-28.072 34.263-58.67 34.263-91.789.001-33.114-11.418-63.713-34.261-91.787zm-32.12 164.594c-19.896 22.456-46.733 40.303-80.517 53.529-33.784 13.223-70.093 19.842-108.921 19.842-11.609 0-23.98-.76-37.113-2.286l-16.274-1.708-12.277 10.852c-23.408 20.558-49.582 36.829-78.513 48.821 8.754-15.414 15.416-31.785 19.986-49.102l7.708-27.412-24.838-14.27c-24.744-14.093-43.918-30.793-57.53-50.114-13.61-19.315-20.412-39.638-20.412-60.954 0-26.077 9.945-50.343 29.834-72.803 19.895-22.458 46.729-40.303 80.515-53.531 33.786-13.229 70.089-19.849 108.92-19.849 38.828 0 75.13 6.617 108.914 19.845 33.783 13.229 60.62 31.073 80.517 53.531 19.89 22.46 29.834 46.727 29.834 72.802s-9.944 50.347-29.833 72.807z"/></symbol><symbol viewBox="-1 0 18 17" id="next"><path class="arrow" d="M16.375 8.339L7.76 15.307l-.857-.99 7.387-5.975-7.383-5.914.852-.992z"/><path class="arrow-fixed" d="M16.375 8.339L7.76 15.307l-.857-.99 7.387-5.975-7.383-5.914.852-.992z"/><path d="M0 .562v15.63L9.708 8.34 0 .562zm1.333 2.74l6.292 5.04-6.292 5.09V3.303z"/></symbol><symbol viewBox="0 0 18 17" id="prev"><g id="prev_prev"><path class="arrow" d="M16.375 8.339L7.76 15.307l-.857-.99 7.387-5.975-7.383-5.914.852-.992z" transform="matrix(-1 0 0 1 17 0)"/><path class="arrow-fixed" d="M16.375 8.339L7.76 15.307l-.857-.99 7.387-5.975-7.383-5.914.852-.992z" transform="matrix(-1 0 0 1 17 0)"/><path d="M0 .562v15.63L9.708 8.34 0 .562zm1.333 2.74l6.292 5.04-6.292 5.09V3.303z" transform="matrix(-1 0 0 1 17 0)"/></g></symbol><symbol viewBox="0 0 512.17 512.17" id="watched"><path d="M509.311 245.418c-3.84-6.4-93.44-160-253.227-160s-249.387 153.6-253.227 160a21.332 21.332 0 000 21.333c3.84 6.4 93.44 160 253.227 160s249.387-153.6 253.227-160a21.332 21.332 0 000-21.333zM256.085 384.085c-112.64 0-187.307-95.573-209.28-128 21.333-32.427 96.427-128 209.28-128s187.307 95.573 209.28 128c-21.974 32.426-96.214 128-209.28 128z"/><path d="M256.085 149.418c-58.91 0-106.667 47.756-106.667 106.667s47.756 106.667 106.667 106.667 106.667-47.756 106.667-106.667-47.757-106.667-106.667-106.667zm0 170.667c-35.346 0-64-28.654-64-64s28.654-64 64-64 64 28.654 64 64-28.654 64-64 64z"/><circle cx="277.418" cy="234.751" r="21.333"/></symbol><style>.sprite-symbol-usage{display:none}.sprite-symbol-usage:target{display:inline}</style></defs><use id="arrow-usage" xlink:href="#arrow" class="sprite-symbol-usage"/><use id="bookmark-usage" xlink:href="#bookmark" class="sprite-symbol-usage"/><use id="comment-usage" xlink:href="#comment" class="sprite-symbol-usage"/><use id="next-usage" xlink:href="#next" class="sprite-symbol-usage"/><use id="prev-usage" xlink:href="#prev" class="sprite-symbol-usage"/><use id="watched-usage" xlink:href="#watched" class="sprite-symbol-usage"/></svg>